# Blender 4.1.1
# www.blender.org
mtllib human.mtl
o object1
v 2.479999 14.000000 -3.250000
v 2.479999 9.010000 -3.250000
v -2.480001 9.010000 -3.250000
v -2.480001 14.000000 -3.250000
v 2.479999 14.000000 -0.773000
v 2.479999 9.010000 -0.773000
v -2.480001 14.000000 -0.773000
v -2.480001 9.010000 -0.773000
v 1.289999 17.400000 -3.470000
v 1.289999 15.000000 -3.470000
v -1.190001 15.000000 -3.470000
v -1.190001 17.400000 -3.470000
v 1.289999 17.400000 -0.601000
v 1.289999 15.000000 -0.601000
v -1.190001 17.400000 -0.601000
v -1.190001 15.000000 -0.601000
v 2.469999 8.010000 -3.150000
v 2.470000 3.050000 -3.150000
v 0.486000 3.050000 -3.150000
v 0.485999 8.010000 -3.150000
v 2.469999 8.010000 -0.892000
v 2.470000 3.050000 -0.892000
v 0.485999 8.010000 -0.892000
v 0.486000 3.050000 -0.892000
v 3.959999 14.000000 -3.230000
v 3.959999 9.010000 -3.230000
v 2.479999 9.010000 -3.230000
v 2.479999 14.000000 -3.230000
v 3.959999 14.000000 -0.747000
v 3.959999 9.010000 -0.747000
v 2.479999 14.000000 -0.747000
v 2.479999 9.010000 -0.747000
v -2.460001 14.000000 -3.270000
v -2.460001 9.010000 -3.270000
v -3.950001 9.010000 -3.270000
v -3.950001 14.000000 -3.270000
v -2.460001 14.000000 -0.795000
v -2.460001 9.010000 -0.795000
v -3.950001 14.000000 -0.795000
v -3.950001 9.010000 -0.795000
v 0.497999 15.000000 -2.490000
v 0.497999 14.000000 -2.490000
v -0.493001 14.000000 -2.490000
v -0.493001 15.000000 -2.490000
v 0.497999 15.000000 -1.500000
v 0.497999 14.000000 -1.500000
v -0.493001 15.000000 -1.500000
v -0.493001 14.000000 -1.500000
v 2.499999 9.010000 -3.250000
v 2.499999 8.010000 -3.250000
v -2.450001 8.010000 -3.250000
v -2.450001 9.010000 -3.250000
v 2.499999 9.010000 -0.771000
v 2.499999 8.010000 -0.771000
v -2.450001 9.010000 -0.771000
v -2.450001 8.010000 -0.771000
v -0.465001 8.010000 -3.270000
v -0.465000 3.050000 -3.270000
v -2.450001 3.050000 -3.270000
v -2.450001 8.010000 -3.270000
v -0.465001 8.010000 -0.795000
v -0.465000 3.050000 -0.795000
v -2.450001 8.010000 -0.795000
v -2.450000 3.050000 -0.795000
vn -0.0000 -0.0000 -1.0000
vn 1.0000 -0.0000 -0.0000
vn -0.0000 -0.0000 1.0000
vn -1.0000 -0.0000 -0.0000
vn -0.0000 1.0000 -0.0000
vn -0.0000 -1.0000 -0.0000
s 0
f 1//1 2//1 3//1 4//1
f 5//2 6//2 2//2 1//2
f 7//3 8//3 6//3 5//3
f 4//4 3//4 8//4 7//4
f 7//5 5//5 1//5 4//5
f 2//6 6//6 8//6 3//6
f 9//1 10//1 11//1 12//1
f 13//2 14//2 10//2 9//2
f 15//3 16//3 14//3 13//3
f 12//4 11//4 16//4 15//4
f 15//5 13//5 9//5 12//5
f 10//6 14//6 16//6 11//6
f 17//1 18//1 19//1 20//1
f 21//2 22//2 18//2 17//2
f 23//3 24//3 22//3 21//3
f 20//4 19//4 24//4 23//4
f 23//5 21//5 17//5 20//5
f 18//6 22//6 24//6 19//6
f 25//1 26//1 27//1 28//1
f 29//2 30//2 26//2 25//2
f 31//3 32//3 30//3 29//3
f 28//4 27//4 32//4 31//4
f 31//5 29//5 25//5 28//5
f 26//6 30//6 32//6 27//6
f 33//1 34//1 35//1 36//1
f 37//2 38//2 34//2 33//2
f 39//3 40//3 38//3 37//3
f 36//4 35//4 40//4 39//4
f 39//5 37//5 33//5 36//5
f 34//6 38//6 40//6 35//6
f 41//1 42//1 43//1 44//1
f 45//2 46//2 42//2 41//2
f 47//3 48//3 46//3 45//3
f 44//4 43//4 48//4 47//4
f 47//5 45//5 41//5 44//5
f 42//6 46//6 48//6 43//6
f 49//1 50//1 51//1 52//1
f 53//2 54//2 50//2 49//2
f 55//3 56//3 54//3 53//3
f 52//4 51//4 56//4 55//4
f 55//5 53//5 49//5 52//5
f 50//6 54//6 56//6 51//6
f 57//1 58//1 59//1 60//1
f 61//2 62//2 58//2 57//2
f 63//3 64//3 62//3 61//3
f 60//4 59//4 64//4 63//4
f 63//5 61//5 57//5 60//5
f 58//6 62//6 64//6 59//6
